# xmcd
#
# Track frame offsets: 
#        150
#        15498
#        33438
#        55327
#        76755
#        95246
#        116592
#        132403
#        155814
#        182696
#        199474
#
# Disc length: 2812 seconds
#
# Revision: 15
# Processed by: cddbd v1.5.2PL0 Copyright (c) Steve Scherf et al.
# Submitted via: ExactAudioCopyFreeDBPlugin 1.0
#
DISCID=960afa0b
DTITLE=Аквариум - Zoom Zoom Zoom
DYEAR=2005
DGENRE=Rock
TTITLE0=Белая
TTITLE1=Трамонтана
TTITLE2=Народная песня из Паламоса
TTITLE3=Мертвые матросы не спят
TTITLE4=Zoom Zoom Zoom
TTITLE5=Забадай
TTITLE6=Бессмертная сестра Хо
TTITLE7=Красота (это страшная сила)
TTITLE8=Крем и карамель
TTITLE9=Не могу оторвать глаз от тебя
TTITLE10=***
EXTD=YEAR: 2005
EXTT0=
EXTT1=
EXTT2=
EXTT3=
EXTT4=
EXTT5=
EXTT6=
EXTT7=
EXTT8=
EXTT9=
EXTT10=
PLAYORDER=
